<?xml version="1.0" standalone="no"?><!DOCTYPE svg PUBLIC "-//W3C//DTD SVG 1.1//EN" "http://www.w3.org/Graphics/SVG/1.1/DTD/svg11.dtd"><svg t="1588754207983" class="icon" viewBox="0 0 1024 1024" version="1.1" xmlns="http://www.w3.org/2000/svg" p-id="2473" xmlns:xlink="http://www.w3.org/1999/xlink" width="200" height="200"><defs><style type="text/css"></style></defs><path d="M710.016 646.016l205.994667 208-61.994667 61.994667-208-205.994667q-80 57.984-176 57.984-123.989333 0-212.010667-88.021333l-88.021333 88.021333 0-256 256 0-107.989333 107.989333q61.994667 61.994667 152.021333 61.994667 77.994667 0 134.997333-48t73.002667-121.984l86.016 0q-8.021333 72.021333-54.016 134.016zM470.016 256q-77.994667 0-136.021333 48t-73.984 121.984l-86.016 0q16-107.989333 100.010667-182.016t196.010667-73.984q121.984 0 210.005333 88.021333l88.021333-88.021333 0 256-256 0 107.989333-107.989333q-61.994667-61.994667-150.016-61.994667z" p-id="2474"></path></svg>