<?xml version="1.0" standalone="no"?><!DOCTYPE svg PUBLIC "-//W3C//DTD SVG 1.1//EN" "http://www.w3.org/Graphics/SVG/1.1/DTD/svg11.dtd"><svg t="1588754142577" class="icon" viewBox="0 0 1024 1024" version="1.1" xmlns="http://www.w3.org/2000/svg" p-id="1024" xmlns:xlink="http://www.w3.org/1999/xlink" width="200" height="200"><defs><style type="text/css"></style></defs><path d="M887.328 617.152L533.951 267.008c-0.512-0.513-1.216-0.673-1.76-1.153-0.127-0.127-0.16-0.32-0.287-0.447-12.576-12.417-32.831-12.353-45.28 0.192L136.512 618.945c-12.448 12.576-12.353 32.8 0.192 45.248a31.972 31.972 0 0 0 22.528 9.28c8.224 0 16.48-3.168 22.72-9.471l327.841-330.817 332.48 329.408a31.919 31.919 0 0 0 22.528 9.28c8.255 0 16.48-3.168 22.72-9.47 12.447-12.546 12.351-32.803-0.193-45.25z" p-id="1025"></path></svg>